<svg width="1920" height="1080" viewBox="0 0 1920 1080" fill="none" xmlns="http://www.w3.org/2000/svg">
  <defs>
    <linearGradient id="bg" x1="0" y1="0" x2="1" y2="1">
      <stop stop-color="#03040B"/>
      <stop offset="1" stop-color="#070B1A"/>
    </linearGradient>
    <radialGradient id="nebulaA" cx="0" cy="0" r="1" gradientUnits="userSpaceOnUse" gradientTransform="translate(420 260) rotate(8) scale(720 420)">
      <stop stop-color="#22D3EE" stop-opacity="0.35"/>
      <stop offset="1" stop-color="#22D3EE" stop-opacity="0"/>
    </radialGradient>
    <radialGradient id="nebulaB" cx="0" cy="0" r="1" gradientUnits="userSpaceOnUse" gradientTransform="translate(1420 760) rotate(-12) scale(760 460)">
      <stop stop-color="#8B5CF6" stop-opacity="0.3"/>
      <stop offset="1" stop-color="#8B5CF6" stop-opacity="0"/>
    </radialGradient>
    <radialGradient id="nebulaC" cx="0" cy="0" r="1" gradientUnits="userSpaceOnUse" gradientTransform="translate(980 540) rotate(16) scale(580 360)">
      <stop stop-color="#38BDF8" stop-opacity="0.2"/>
      <stop offset="1" stop-color="#38BDF8" stop-opacity="0"/>
    </radialGradient>
  </defs>

  <rect width="1920" height="1080" fill="url(#bg)"/>
  <rect width="1920" height="1080" fill="url(#nebulaA)"/>
  <rect width="1920" height="1080" fill="url(#nebulaB)"/>
  <rect width="1920" height="1080" fill="url(#nebulaC)"/>

  <g opacity="0.32" fill="#E2E8F0">
    <circle cx="180" cy="140" r="1.4"/>
    <circle cx="340" cy="220" r="1.1"/>
    <circle cx="560" cy="160" r="1.2"/>
    <circle cx="820" cy="280" r="1.6"/>
    <circle cx="1020" cy="180" r="1.1"/>
    <circle cx="1240" cy="260" r="1.4"/>
    <circle cx="1520" cy="220" r="1.3"/>
    <circle cx="1720" cy="340" r="1.5"/>
    <circle cx="260" cy="620" r="1.2"/>
    <circle cx="460" cy="780" r="1.5"/>
    <circle cx="740" cy="700" r="1.2"/>
    <circle cx="980" cy="820" r="1.7"/>
    <circle cx="1260" cy="700" r="1.3"/>
    <circle cx="1500" cy="840" r="1.4"/>
    <circle cx="1760" cy="760" r="1.2"/>
  </g>
</svg>
