<svg width="1024" height="1024" viewBox="0 0 1024 1024" fill="none" xmlns="http://www.w3.org/2000/svg">
  <defs>
    <!-- Ambient aura -->
    <radialGradient id="bgGlow" cx="0" cy="0" r="1" gradientUnits="userSpaceOnUse" gradientTransform="translate(512 512) rotate(90) scale(380)">
      <stop offset="0" stop-color="#22D3EE" stop-opacity="0.22"/>
      <stop offset="0.35" stop-color="#6366F1" stop-opacity="0.10"/>
      <stop offset="0.7" stop-color="#8B5CF6" stop-opacity="0.05"/>
      <stop offset="1" stop-color="#8B5CF6" stop-opacity="0"/>
    </radialGradient>

    <!-- Body: refined cyan → blue → violet (smoother, less saturated) -->
    <linearGradient id="bodyMain" x1="420" y1="180" x2="620" y2="750" gradientUnits="userSpaceOnUse">
      <stop offset="0" stop-color="#E8F4FF"/>
      <stop offset="0.18" stop-color="#93C5FD"/>
      <stop offset="0.40" stop-color="#6B8AFF"/>
      <stop offset="0.62" stop-color="#7C6CF0"/>
      <stop offset="0.82" stop-color="#8B5CF6"/>
      <stop offset="1" stop-color="#6D28D9"/>
    </linearGradient>

    <!-- Body edge stroke -->
    <linearGradient id="bodyEdge" x1="380" y1="200" x2="670" y2="760" gradientUnits="userSpaceOnUse">
      <stop offset="0" stop-color="#BAE6FD" stop-opacity="0.55"/>
      <stop offset="0.5" stop-color="#818CF8" stop-opacity="0.30"/>
      <stop offset="1" stop-color="#7C3AED" stop-opacity="0.20"/>
    </linearGradient>

    <!-- Specular highlight on upper body -->
    <linearGradient id="bodyHighlight" x1="460" y1="200" x2="530" y2="480" gradientUnits="userSpaceOnUse">
      <stop offset="0" stop-color="#FFFFFF" stop-opacity="0.42"/>
      <stop offset="0.35" stop-color="#FFFFFF" stop-opacity="0.15"/>
      <stop offset="0.7" stop-color="#FFFFFF" stop-opacity="0.04"/>
      <stop offset="1" stop-color="#FFFFFF" stop-opacity="0"/>
    </linearGradient>

    <!-- Glass viewport -->
    <linearGradient id="glass" x1="448" y1="300" x2="576" y2="430" gradientUnits="userSpaceOnUse">
      <stop offset="0" stop-color="#7DD3FC"/>
      <stop offset="0.45" stop-color="#818CF8"/>
      <stop offset="1" stop-color="#8B5CF6"/>
    </linearGradient>

    <!-- Glass specular -->
    <radialGradient id="glassShine" cx="0" cy="0" r="1" gradientUnits="userSpaceOnUse" gradientTransform="translate(492 338) scale(40)">
      <stop offset="0" stop-color="#FFFFFF" stop-opacity="0.55"/>
      <stop offset="1" stop-color="#FFFFFF" stop-opacity="0"/>
    </radialGradient>

    <!-- Left fin -->
    <linearGradient id="fin" x1="328" y1="540" x2="470" y2="710" gradientUnits="userSpaceOnUse">
      <stop offset="0" stop-color="#93A3F8"/>
      <stop offset="0.5" stop-color="#6B6CF0"/>
      <stop offset="1" stop-color="#4C1D95"/>
    </linearGradient>

    <!-- Right fin -->
    <linearGradient id="finRight" x1="696" y1="540" x2="554" y2="710" gradientUnits="userSpaceOnUse">
      <stop offset="0" stop-color="#93A3F8"/>
      <stop offset="0.5" stop-color="#6B6CF0"/>
      <stop offset="1" stop-color="#4C1D95"/>
    </linearGradient>

    <!-- Flame outer -->
    <linearGradient id="flameOuter" x1="512" y1="690" x2="512" y2="900" gradientUnits="userSpaceOnUse">
      <stop offset="0" stop-color="#FDE68A"/>
      <stop offset="0.45" stop-color="#FB923C"/>
      <stop offset="1" stop-color="#DC2626" stop-opacity="0.85"/>
    </linearGradient>

    <!-- Flame inner -->
    <linearGradient id="flameInner" x1="512" y1="720" x2="512" y2="864" gradientUnits="userSpaceOnUse">
      <stop offset="0" stop-color="#FEF9C3"/>
      <stop offset="0.4" stop-color="#FDBA74"/>
      <stop offset="1" stop-color="#EA580C"/>
    </linearGradient>

    <!-- Composite drop shadow + color glow -->
    <filter id="shadow" x="180" y="110" width="664" height="848" filterUnits="userSpaceOnUse" color-interpolation-filters="sRGB">
      <feDropShadow dx="0" dy="12" stdDeviation="16" flood-color="#020617" flood-opacity="0.45"/>
      <feDropShadow dx="0" dy="4" stdDeviation="10" flood-color="#818CF8" flood-opacity="0.22"/>
    </filter>

    <!-- Ambient edge glow -->
    <filter id="edgeGlow" x="340" y="160" width="344" height="600" filterUnits="userSpaceOnUse" color-interpolation-filters="sRGB">
      <feGaussianBlur in="SourceGraphic" stdDeviation="6"/>
    </filter>
  </defs>

  <!-- Background aura -->
  <circle cx="512" cy="512" r="380" fill="url(#bgGlow)"/>

  <!-- Rocket group with shadow -->
  <g filter="url(#shadow)">
    <!-- Body -->
    <path d="M512 178C468 220 394 330 394 498C394 596 444 686 512 738C580 686 630 596 630 498C630 330 556 220 512 178Z" fill="url(#bodyMain)" stroke="url(#bodyEdge)" stroke-width="8"/>

    <!-- Specular highlight on body -->
    <path d="M512 200C488 240 448 340 448 480C448 560 478 630 512 670C520 662 540 630 550 580C560 530 562 460 556 390C550 320 530 254 512 200Z" fill="url(#bodyHighlight)"/>

    <!-- Glass ring -->
    <ellipse cx="512" cy="360" rx="78" ry="78" fill="#0F172A" fill-opacity="0.35"/>
    <!-- Glass viewport -->
    <circle cx="512" cy="360" r="66" fill="url(#glass)"/>
    <!-- Glass specular catch -->
    <circle cx="492" cy="340" r="22" fill="url(#glassShine)"/>

    <!-- Left fin -->
    <path d="M394 534C332 558 294 614 286 698C362 690 424 664 466 622" fill="url(#fin)"/>
    <!-- Right fin -->
    <path d="M630 534C692 558 730 614 738 698C662 690 600 664 558 622" fill="url(#finRight)"/>

    <!-- Nozzle base -->
    <path d="M458 646C470 684 488 714 512 738C536 714 554 684 566 646" fill="#4C1D95" fill-opacity="0.50"/>

    <!-- Flame outer -->
    <path d="M512 690C478 742 470 806 512 892C554 806 546 742 512 690Z" fill="url(#flameOuter)"/>
    <!-- Flame inner -->
    <path d="M512 720C490 756 486 798 512 860C538 798 534 756 512 720Z" fill="url(#flameInner)"/>

    <!-- Subtle rim light (left edge) -->
    <path d="M410 260C400 320 394 420 394 498C394 556 410 616 440 664" stroke="#A5F3FC" stroke-width="2" stroke-opacity="0.18" fill="none"/>
    <!-- Subtle rim light (right edge) -->
    <path d="M614 260C624 320 630 420 630 498C630 556 614 616 584 664" stroke="#C4B5FD" stroke-width="2" stroke-opacity="0.14" fill="none"/>
  </g>
</svg>
