<svg width="1024" height="1024" viewBox="0 0 1024 1024" fill="none" xmlns="http://www.w3.org/2000/svg">
  <defs>
    <radialGradient id="bgGlow" cx="0" cy="0" r="1" gradientUnits="userSpaceOnUse" gradientTransform="translate(512 512) rotate(90) scale(380)">
      <stop offset="0" stop-color="#22D3EE" stop-opacity="0.28"/>
      <stop offset="0.5" stop-color="#22D3EE" stop-opacity="0.08"/>
      <stop offset="1" stop-color="#22D3EE" stop-opacity="0"/>
    </radialGradient>

    <linearGradient id="bodyMain" x1="382" y1="190" x2="662" y2="740" gradientUnits="userSpaceOnUse">
      <stop offset="0" stop-color="#EEF8FF"/>
      <stop offset="0.38" stop-color="#CDE9FF"/>
      <stop offset="0.75" stop-color="#8FC1F2"/>
      <stop offset="1" stop-color="#5B8FC8"/>
    </linearGradient>

    <linearGradient id="bodyEdge" x1="372" y1="210" x2="678" y2="760" gradientUnits="userSpaceOnUse">
      <stop offset="0" stop-color="#E9F7FF"/>
      <stop offset="1" stop-color="#2F557F"/>
    </linearGradient>

    <linearGradient id="glass" x1="448" y1="304" x2="576" y2="430" gradientUnits="userSpaceOnUse">
      <stop offset="0" stop-color="#A5F3FC"/>
      <stop offset="1" stop-color="#2563EB"/>
    </linearGradient>

    <linearGradient id="fin" x1="328" y1="550" x2="480" y2="702" gradientUnits="userSpaceOnUse">
      <stop offset="0" stop-color="#60A5FA"/>
      <stop offset="1" stop-color="#1E3A8A"/>
    </linearGradient>

    <linearGradient id="finRight" x1="696" y1="550" x2="544" y2="702" gradientUnits="userSpaceOnUse">
      <stop offset="0" stop-color="#60A5FA"/>
      <stop offset="1" stop-color="#1E3A8A"/>
    </linearGradient>

    <linearGradient id="flameOuter" x1="512" y1="690" x2="512" y2="900" gradientUnits="userSpaceOnUse">
      <stop offset="0" stop-color="#FDE68A"/>
      <stop offset="0.55" stop-color="#FB923C"/>
      <stop offset="1" stop-color="#DC2626" stop-opacity="0.9"/>
    </linearGradient>

    <linearGradient id="flameInner" x1="512" y1="720" x2="512" y2="864" gradientUnits="userSpaceOnUse">
      <stop offset="0" stop-color="#FEF9C3"/>
      <stop offset="0.45" stop-color="#FDBA74"/>
      <stop offset="1" stop-color="#EA580C"/>
    </linearGradient>

    <filter id="shadow" x="190" y="120" width="644" height="828" filterUnits="userSpaceOnUse" color-interpolation-filters="sRGB">
      <feDropShadow dx="0" dy="18" stdDeviation="20" flood-color="#020617" flood-opacity="0.52"/>
      <feDropShadow dx="0" dy="4" stdDeviation="6" flood-color="#0EA5E9" flood-opacity="0.2"/>
    </filter>
  </defs>

  <circle cx="512" cy="512" r="380" fill="url(#bgGlow)"/>

  <g filter="url(#shadow)">
    <path d="M512 178C468 220 394 330 394 498C394 596 444 686 512 738C580 686 630 596 630 498C630 330 556 220 512 178Z" fill="url(#bodyMain)" stroke="url(#bodyEdge)" stroke-width="10"/>

    <path d="M512 218C482 260 438 344 438 476C438 566 474 640 512 682C550 640 586 566 586 476C586 344 542 260 512 218Z" fill="white" fill-opacity="0.22"/>

    <ellipse cx="512" cy="360" rx="78" ry="78" fill="#0F172A" fill-opacity="0.32"/>
    <circle cx="512" cy="360" r="66" fill="url(#glass)"/>
    <circle cx="490" cy="340" r="18" fill="white" fill-opacity="0.35"/>

    <path d="M394 534C332 558 294 614 286 698C362 690 424 664 466 622" fill="url(#fin)"/>
    <path d="M630 534C692 558 730 614 738 698C662 690 600 664 558 622" fill="url(#finRight)"/>

    <path d="M458 646C470 684 488 714 512 738C536 714 554 684 566 646" fill="#1E3A8A" fill-opacity="0.55"/>

    <path d="M512 690C478 742 470 806 512 892C554 806 546 742 512 690Z" fill="url(#flameOuter)"/>
    <path d="M512 720C490 756 486 798 512 860C538 798 534 756 512 720Z" fill="url(#flameInner)"/>
  </g>
</svg>
