<svg xmlns="http://www.w3.org/2000/svg" width="1080" height="1920" viewBox="0 0 1080 1920"><defs>
    <radialGradient id="void" cx="50%" cy="45%" r="75%"><stop offset="0%" stop-color="#111119"/><stop offset="70%" stop-color="#0A0A0F"/><stop offset="100%" stop-color="#050508"/></radialGradient>
    <linearGradient id="cyan" x1="0" y1="0" x2="1" y2="0"><stop offset="0%" stop-color="#00D4FF"/><stop offset="100%" stop-color="#7A5CFF"/></linearGradient>
    <filter id="glow"><feGaussianBlur stdDeviation="6" result="b"/><feMerge><feMergeNode in="b"/><feMergeNode in="SourceGraphic"/></feMerge></filter>
  </defs>
    <rect width="1080" height="1920" fill="url(#void)"/>
    <g transform="translate(0 656.3) scale(0.5625)"><rect width="1920" height="1080" fill="url(#void)"/><text x="960" y="84" font-family="Inter,Segoe UI,Helvetica,Arial,sans-serif" font-size="22" fill="#5b6577" text-anchor="middle" font-weight="600">MUSIC COMPOSER</text>
    <rect x="400" y="390" width="1120" height="300" rx="22" fill="#12131b" stroke="#22242f" stroke-width="1.5"/>
    <text x="440" y="444" font-family="Inter,Segoe UI,Helvetica,Arial,sans-serif" font-size="24" fill="#5b6577" text-anchor="start" font-weight="500">📝 Lyrics   ✨ Write lyrics</text>
    <text x="440" y="520" font-family="Inter,Segoe UI,Helvetica,Arial,sans-serif" font-size="24" fill="#5b6577" text-anchor="start" font-weight="500">🎤 Your voice · Record · Upload · Trained-RVC</text>
    <rect x="460" y="630" width="8" height="20" rx="3" fill="#00D4FF" opacity="0.5"/><rect x="477" y="586.8517015256217" width="8" height="63.14829847437827" rx="3" fill="#00D4FF" opacity="0.7397127693021015"/><rect x="494" y="554.2676113672893" width="8" height="95.73238863271068" rx="3" fill="#00D4FF" opacity="0.9207354924039483"/><rect x="511" y="540.2254512056351" width="8" height="109.7745487943649" rx="3" fill="#00D4FF" opacity="0.9987474933020273"/><rect x="528" y="548.1632315856887" width="8" height="101.83676841431135" rx="3" fill="#00D4FF" opacity="0.9546487134128409"/><rect x="545" y="576.137507030644" width="8" height="73.86249296935608" rx="3" fill="#00D4FF" opacity="0.7992360720519782"/><rect x="562" y="617.299199274612" width="8" height="32.70080072538805" rx="3" fill="#00D4FF" opacity="0.5705600040299336"/><rect x="579" y="598.4295095079342" width="8" height="51.57049049206579" rx="3" fill="#00D4FF" opacity="0.67539161384481"/><rect x="596" y="561.8877754222865" width="8" height="88.11222457771353" rx="3" fill="#00D4FF" opacity="0.8784012476539641"/><rect x="613" y="542.0222894101413" width="8" height="107.97771058985873" rx="3" fill="#00D4FF" opacity="0.9887650588325485"/><rect x="630" y="543.6968152803175" width="8" height="106.30318471968246" rx="3" fill="#00D4FF" opacity="0.9794621373315693"/><rect x="647" y="566.5013706986647" width="8" height="83.49862930133527" rx="3" fill="#00D4FF" opacity="0.852770162785196"/><rect x="664" y="604.8526051620967" width="8" height="45.14739483790333" rx="3" fill="#00D4FF" opacity="0.6397077490994629"/><rect x="681" y="610.6392010720966" width="8" height="39.360798927903396" rx="3" fill="#00D4FF" opacity="0.6075599940439078"/><rect x="698" y="570.871206115309" width="8" height="79.12879388469102" rx="3" fill="#00D4FF" opacity="0.8284932993593945"/><rect x="715" y="545.5800020902735" width="8" height="104.4199979097265" rx="3" fill="#00D4FF" opacity="0.9689999883873694"/><rect x="732" y="540.9577578038957" width="8" height="109.04224219610435" rx="3" fill="#00D4FF" opacity="0.994679123311691"/><rect x="749" y="558.1361598638858" width="8" height="91.86384013611412" rx="3" fill="#00D4FF" opacity="0.8992435563117451"/><rect x="766" y="592.9093363282419" width="8" height="57.090663671758094" rx="3" fill="#00D4FF" opacity="0.7060592426208783"/><rect x="783" y="623.2363991584372" width="8" height="26.763600841562837" rx="3" fill="#00D4FF" opacity="0.5375755602309047"/><rect x="800" y="581.0381000199567" width="8" height="68.96189998004328" rx="3" fill="#00D4FF" opacity="0.7720105554446849"/><rect x="817" y="550.8273816025497" width="8" height="99.17261839745031" rx="3" fill="#00D4FF" opacity="0.939847879985835"/><rect x="834" y="540.0008814104367" width="8" height="109.99911858956331" rx="3" fill="#00D4FF" opacity="0.9999951032753518"/><rect x="851" y="551.2093042780414" width="8" height="98.79069572195857" rx="3" fill="#00D4FF" opacity="0.9377260873442143"/><rect x="868" y="581.7084373799609" width="8" height="68.29156262003914" rx="3" fill="#00D4FF" opacity="0.7682864590002174"/><rect x="885" y="624.031029238392" width="8" height="25.968970761608063" rx="3" fill="#00D4FF" opacity="0.5331609486756004"/><rect x="902" y="592.1849666856024" width="8" height="57.81503331439768" rx="3" fill="#00D4FF" opacity="0.7100835184133205"/><rect x="919" y="557.659401610354" width="8" height="92.34059838964589" rx="3" fill="#00D4FF" opacity="0.9018922132758105"/><rect x="936" y="540.8453379874617" width="8" height="109.15466201253834" rx="3" fill="#00D4FF" opacity="0.9953036778474351"/><rect x="953" y="545.8594450027786" width="8" height="104.14055499722147" rx="3" fill="#00D4FF" opacity="0.9674475277623416"/><rect x="970" y="571.4740943858595" width="8" height="78.52590561414051" rx="3" fill="#00D4FF" opacity="0.8251439200785584"/><rect x="987" y="611.4179266255983" width="8" height="38.582073374401695" rx="3" fill="#00D4FF" opacity="0.6032337409688983"/><rect x="1004" y="604.0887015001441" width="8" height="45.911298499855874" rx="3" fill="#00D4FF" opacity="0.6439516583325327"/><rect x="1021" y="565.9393191867789" width="8" height="84.06068081322107" rx="3" fill="#00D4FF" opacity="0.8558926711845616"/><rect x="1038" y="543.4742257308399" width="8" height="106.52577426916011" rx="3" fill="#00D4FF" opacity="0.9806987459397785"/><rect x="1055" y="542.1936595078658" width="8" height="107.80634049213418" rx="3" fill="#00D4FF" opacity="0.9878130027340788"/><rect x="1072" y="562.4111477905492" width="8" height="87.58885220945085" rx="3" fill="#00D4FF" opacity="0.8754936233858381"/><rect x="1089" y="599.1767443377348" width="8" height="50.823255662265126" rx="3" fill="#00D4FF" opacity="0.6712403092348063"/><rect x="1106" y="616.5110511303343" width="8" height="33.48894886966571" rx="3" fill="#00D4FF" opacity="0.5749386048314762"/><rect x="1123" y="575.5014117252359" width="8" height="74.4985882747641" rx="3" fill="#00D4FF" opacity="0.8027699348598005"/><rect x="1140" y="547.8349274345135" width="8" height="102.1650725654865" rx="3" fill="#00D4FF" opacity="0.9564726253638138"/><rect x="1157" y="540.2853185149081" width="8" height="109.71468148509193" rx="3" fill="#00D4FF" opacity="0.9984148971393996"/><rect x="1174" y="554.700992531755" width="8" height="95.29900746824505" rx="3" fill="#00D4FF" opacity="0.918327819268028"/><rect x="1191" y="587.5524897215223" width="8" height="62.44751027847765" rx="3" fill="#00D4FF" opacity="0.7358195015470981"/><rect x="1208" y="629.2033821638637" width="8" height="20.79661783613635" rx="3" fill="#00D4FF" opacity="0.504425654645202"/><rect x="1225" y="586.1542938785542" width="8" height="63.84570612144586" rx="3" fill="#00D4FF" opacity="0.7435872562302548"/><rect x="1242" y="553.8401636242346" width="8" height="96.15983637576535" rx="3" fill="#00D4FF" opacity="0.9231102020875853"/><rect x="1259" y="540.1726174818543" width="8" height="109.82738251814567" rx="3" fill="#00D4FF" opacity="0.9990410139896981"/><rect x="1276" y="548.4979474194039" width="8" height="101.50205258059614" rx="3" fill="#00D4FF" opacity="0.9527891810033119"/><rect x="1293" y="576.7778223121388" width="8" height="73.22217768786119" rx="3" fill="#00D4FF" opacity="0.7956787649325622"/><rect x="1310" y="618.0883424912005" width="8" height="31.91165750879957" rx="3" fill="#00D4FF" opacity="0.5661758750488866"/><rect x="1327" y="597.6847481380048" width="8" height="52.315251861995144" rx="3" fill="#00D4FF" opacity="0.6795291770110842"/><rect x="1344" y="561.3697394568358" width="8" height="88.63026054316425" rx="3" fill="#00D4FF" opacity="0.8812792252398014"/><rect x="1361" y="541.8578121206475" width="8" height="108.14218787935253" rx="3" fill="#00D4FF" opacity="0.9896788215519585"/><rect x="1378" y="543.9261664435948" width="8" height="106.07383355640528" rx="3" fill="#00D4FF" opacity="0.9781879642022515"/><rect x="1395" y="567.0683971510412" width="8" height="82.93160284895879" rx="3" fill="#00D4FF" opacity="0.8496200158275489"/><rect x="1412" y="605.6184790522918" width="8" height="44.38152094770821" rx="3" fill="#00D4FF" opacity="0.6354528941539346"/><rect x="1429" y="609.8619923831883" width="8" height="40.13800761681168" rx="3" fill="#00D4FF" opacity="0.6118778200933982"/><rect x="1446" y="570.2729504208329" width="8" height="79.72704957916707" rx="3" fill="#00D4FF" opacity="0.8318169421064838"/><rect x="1463" y="545.3071732491342" width="8" height="104.69282675086582" rx="3" fill="#00D4FF" opacity="0.9705157041714768"/></g>
    <rect x="8" y="648.3" width="1064" height="623.5" rx="16" fill="none" stroke="#00D4FF" stroke-opacity="0.16" stroke-width="1.5"/>
    <text x="540" y="1808" font-family="Inter,Segoe UI,Helvetica,Arial,sans-serif" font-size="32" fill="#E8ECF4" text-anchor="middle" font-weight="800">My Avatar</text>
    <line x1="468" y1="1824" x2="612" y2="1824" stroke="#00D4FF" stroke-width="3" stroke-linecap="round"/>
    <text x="540" y="1860" font-family="Inter,Segoe UI,Helvetica,Arial,sans-serif" font-size="20" fill="#00D4FF" text-anchor="middle" font-weight="600">MyAvatar.ge</text>
  </svg>