<svg xmlns="http://www.w3.org/2000/svg" width="1080" height="1920" viewBox="0 0 1080 1920"><defs>
    <radialGradient id="void" cx="50%" cy="45%" r="75%"><stop offset="0%" stop-color="#111119"/><stop offset="70%" stop-color="#0A0A0F"/><stop offset="100%" stop-color="#050508"/></radialGradient>
    <linearGradient id="cyan" x1="0" y1="0" x2="1" y2="0"><stop offset="0%" stop-color="#00D4FF"/><stop offset="100%" stop-color="#7A5CFF"/></linearGradient>
    <filter id="glow"><feGaussianBlur stdDeviation="6" result="b"/><feMerge><feMergeNode in="b"/><feMergeNode in="SourceGraphic"/></feMerge></filter>
  </defs>
    <rect width="1080" height="1920" fill="url(#void)"/>
    <g transform="translate(0 656.3) scale(0.5625)"><rect width="1920" height="1080" fill="url(#void)"/><text x="960" y="84" font-family="Inter,Segoe UI,Helvetica,Arial,sans-serif" font-size="22" fill="#5b6577" text-anchor="middle" font-weight="600">Cap-3 · mapWithConcurrency · 4 workers</text>
    <rect x="510" y="410" width="900" height="40" rx="20" fill="#171922" stroke="#242732" stroke-width="1"/><rect x="510" y="410" width="360" height="40" rx="20" fill="url(#cyan)"/><text x="480" y="438" font-family="Inter,Segoe UI,Helvetica,Arial,sans-serif" font-size="20" fill="#5b6577" text-anchor="end" font-weight="500">L1</text><rect x="510" y="480" width="900" height="40" rx="20" fill="#171922" stroke="#242732" stroke-width="1"/><rect x="510" y="480" width="495.00000000000006" height="40" rx="20" fill="url(#cyan)"/><text x="480" y="508" font-family="Inter,Segoe UI,Helvetica,Arial,sans-serif" font-size="20" fill="#5b6577" text-anchor="end" font-weight="500">L2</text><rect x="510" y="550" width="900" height="40" rx="20" fill="#171922" stroke="#242732" stroke-width="1"/><rect x="510" y="550" width="630" height="40" rx="20" fill="url(#cyan)"/><text x="480" y="578" font-family="Inter,Segoe UI,Helvetica,Arial,sans-serif" font-size="20" fill="#5b6577" text-anchor="end" font-weight="500">L3</text><rect x="510" y="620" width="900" height="40" rx="20" fill="#171922" stroke="#242732" stroke-width="1"/><rect x="510" y="620" width="765" height="40" rx="20" fill="url(#cyan)"/><text x="480" y="648" font-family="Inter,Segoe UI,Helvetica,Arial,sans-serif" font-size="20" fill="#5b6577" text-anchor="end" font-weight="500">L4</text></g>
    <rect x="8" y="648.3" width="1064" height="623.5" rx="16" fill="none" stroke="#00D4FF" stroke-opacity="0.16" stroke-width="1.5"/>
    <text x="540" y="1808" font-family="Inter,Segoe UI,Helvetica,Arial,sans-serif" font-size="32" fill="#E8ECF4" text-anchor="middle" font-weight="800">My Avatar</text>
    <line x1="468" y1="1824" x2="612" y2="1824" stroke="#00D4FF" stroke-width="3" stroke-linecap="round"/>
    <text x="540" y="1860" font-family="Inter,Segoe UI,Helvetica,Arial,sans-serif" font-size="20" fill="#00D4FF" text-anchor="middle" font-weight="600">MyAvatar.ge</text>
  </svg>